<svg width="125" height="92" viewBox="0 0 125 92" fill="none" xmlns="http://www.w3.org/2000/svg">
<path d="M9.91797 66.8086H8.47266V72.2578H9.76172C9.83984 72.2578 9.91797 72.2578 9.99609 72.2578C11.3893 72.1536 12.0859 71.2357 12.0859 69.5039C12.0859 69.3216 12.0794 69.1458 12.0664 68.9766C11.9102 67.5312 11.194 66.8086 9.91797 66.8086ZM10.4258 78H4.50781V77.4727H6.07031V66.8086H4.50781V66.2812H10.7969C11.6693 66.2812 12.4115 66.431 13.0234 66.7305C14.1172 67.2643 14.6641 68.1497 14.6641 69.3867C14.6641 69.9206 14.5599 70.4089 14.3516 70.8516C13.7266 72.1797 12.3138 72.8438 10.1133 72.8438H8.47266V77.4727H9.89844C10.1719 77.4987 10.3477 77.6745 10.4258 78ZM19.6352 77.4922C19.7133 77.4922 19.7914 77.4987 19.8695 77.5117C20.0388 77.5508 20.1234 77.7135 20.1234 78H14.9867V77.4922C15.4034 77.4922 15.7094 77.4661 15.9047 77.4141C16.2953 77.2969 16.4906 76.9583 16.4906 76.3984V65.8125H14.9867V65.3047H18.6391V77.4922H19.6352ZM27.7313 78.1953C26.7026 78.1823 26.0841 77.5898 25.8758 76.418C25.7846 76.6523 25.6609 76.8802 25.5047 77.1016C24.9318 77.8307 24.131 78.1953 23.1023 78.1953C22.7378 78.1953 22.3992 78.1432 22.0867 78.0391C21.1102 77.7135 20.6219 76.9909 20.6219 75.8711C20.6349 74.1393 22.3471 73.2474 25.7586 73.1953V71.9453C25.7586 71.6979 25.7456 71.4701 25.7195 71.2617C25.5893 70.3372 25.1336 69.875 24.3523 69.875C24.144 69.875 23.9552 69.9141 23.7859 69.9922C23.5385 70.1224 23.3367 70.4544 23.1805 70.9883C23.1284 71.1445 23.0893 71.2552 23.0633 71.3203C22.881 71.8021 22.5555 72.043 22.0867 72.043C21.9695 72.043 21.8523 72.0234 21.7352 71.9844C21.3185 71.8542 21.1102 71.5677 21.1102 71.125C21.1102 70.8906 21.1818 70.6693 21.325 70.4609C21.8068 69.7318 22.868 69.3672 24.5086 69.3672C24.8732 69.3672 25.2182 69.3997 25.5438 69.4648C27.1323 69.7773 27.9266 70.7734 27.9266 72.4531V76.5547C27.9266 77.1797 28.0763 77.5052 28.3758 77.5312C28.7664 77.5182 29.0008 77.056 29.0789 76.1445L29.5867 76.1641C29.5607 76.5286 29.5151 76.8411 29.45 77.1016C29.2286 77.8307 28.6557 78.1953 27.7313 78.1953ZM24.0008 77.375C24.157 77.375 24.3263 77.3359 24.5086 77.2578C25.1206 76.9844 25.5372 76.4049 25.7586 75.5195V73.7422C25.1076 73.7552 24.5737 73.8203 24.157 73.9375C23.2716 74.1719 22.8289 74.7318 22.8289 75.6172C22.8289 75.6823 22.8289 75.7474 22.8289 75.8125C22.881 76.8542 23.2716 77.375 24.0008 77.375ZM33.7375 77.4922C33.8156 77.4922 33.8937 77.4987 33.9719 77.5117C34.1411 77.5508 34.2258 77.7135 34.2258 78H29.7336V77.4922C29.968 77.4922 30.1698 77.4727 30.3391 77.4336C30.7687 77.3424 30.9836 77.0104 30.9836 76.4375V70.1289H29.7336V69.6406H33.0148L33.1125 71.2617C33.2427 70.9883 33.412 70.7279 33.6203 70.4805C34.2714 69.7383 35.0656 69.3672 36.0031 69.3672C36.3937 69.3672 36.7583 69.4388 37.0969 69.582C38.1646 70.0247 38.6984 71.0143 38.6984 72.5508V77.4922H39.4602C39.5383 77.4922 39.6164 77.4987 39.6945 77.5117C39.8638 77.5508 39.9484 77.7135 39.9484 78H35.4758V77.4922C35.7492 77.4922 35.9576 77.4661 36.1008 77.4141C36.4003 77.3099 36.55 76.9844 36.55 76.4375V72.2578C36.55 71.9714 36.5174 71.7109 36.4523 71.4766C36.257 70.7083 35.7948 70.3242 35.0656 70.3242C34.8182 70.3242 34.5708 70.3893 34.3234 70.5195C33.6333 70.9102 33.2427 71.6263 33.1516 72.668L33.132 77.4922H33.7375ZM40.232 70.207V69.6992H41.5797V67.8438L43.7281 67.4336V69.6992H46.4625V70.207H43.7281V76.125C43.7281 76.2552 43.7346 76.3854 43.7477 76.5156C43.8388 77.2578 44.1578 77.6289 44.7047 77.6289C45.3427 77.6159 45.8049 77.0299 46.0914 75.8711L46.6188 75.9492C46.5406 76.3529 46.4365 76.6979 46.3063 76.9844C45.9417 77.8047 45.2451 78.2148 44.2164 78.2148C42.5758 78.1497 41.6969 77.1732 41.5797 75.2852V70.207H40.232ZM50.1055 77.6484C50.9779 77.6484 51.5182 77.3555 51.7266 76.7695C51.7656 76.6393 51.7852 76.5091 51.7852 76.3789C51.7852 75.7539 51.375 75.2266 50.5547 74.7969C50.3724 74.7057 50.0859 74.5755 49.6953 74.4062C48.6927 73.9635 48.0221 73.5599 47.6836 73.1953C47.332 72.7786 47.1562 72.2969 47.1562 71.75C47.1562 70.7214 47.7161 70.0117 48.8359 69.6211C49.3307 69.4518 49.8841 69.3672 50.4961 69.3672C51.4466 69.3672 52.2279 69.5495 52.8398 69.9141C52.8398 69.5234 52.944 69.3086 53.1523 69.2695C53.2174 69.2565 53.2826 69.25 53.3477 69.25V71.6914H52.7617C52.7096 70.5065 52.0586 69.9076 50.8086 69.8945C49.9362 69.8945 49.3958 70.168 49.1875 70.7148C49.1354 70.8581 49.1094 71.0013 49.1094 71.1445C49.1094 71.6914 49.5 72.1667 50.2812 72.5703C50.4505 72.6484 50.724 72.7721 51.1016 72.9414C52.1302 73.3841 52.8138 73.7943 53.1523 74.1719C53.543 74.6146 53.7383 75.1354 53.7383 75.7344C53.7383 76.8411 53.1654 77.5833 52.0195 77.9609C51.5508 78.1172 51.0299 78.1953 50.457 78.1953C49.3633 78.1953 48.4453 77.9805 47.7031 77.5508C47.7031 77.8893 47.6185 78.0846 47.4492 78.1367C47.3711 78.1497 47.2799 78.1562 47.1758 78.1562V75.1875H47.8008C47.8268 76.8151 48.5951 77.6354 50.1055 77.6484ZM62.9383 77.4922C63.0034 77.4922 63.062 77.4987 63.1141 77.5117C63.3094 77.5378 63.407 77.7005 63.407 78H57.9188V77.4922C58.1531 77.4922 58.3549 77.4792 58.5242 77.4531C59.1102 77.362 59.4031 77.0234 59.4031 76.4375V70.1484H57.8797V69.6406H59.4031V69.3672C59.4031 68.3776 59.5984 67.5443 59.9891 66.8672C60.6271 65.7604 61.6753 65.207 63.1336 65.207C63.7586 65.207 64.299 65.3112 64.7547 65.5195C65.4188 65.8451 65.7508 66.2812 65.7508 66.8281C65.7508 66.9193 65.7378 67.0104 65.7117 67.1016C65.5815 67.5052 65.2625 67.707 64.7547 67.707C64.5203 67.707 64.3185 67.6159 64.1492 67.4336C64.0451 67.3294 63.8628 67.0039 63.6023 66.457C63.368 65.9622 63.0815 65.7148 62.743 65.7148C62.5216 65.7148 62.3263 65.7799 62.157 65.9102C61.7534 66.2878 61.5516 67.4922 61.5516 69.5234V69.6406H63.7781V70.1484H61.5516V77.4922H62.9383ZM66.5031 73.7812C66.5031 74.7057 66.5682 75.4479 66.6984 76.0078C66.9589 77.1276 67.5773 77.6875 68.5539 77.6875C68.8794 77.6875 69.1724 77.6224 69.4328 77.4922C70.2271 77.0625 70.6242 75.7995 70.6242 73.7031C70.6242 72.8177 70.5591 72.1016 70.4289 71.5547C70.1685 70.4349 69.5435 69.875 68.5539 69.875C68.1763 69.875 67.8443 69.9596 67.5578 70.1289C66.8547 70.5846 66.5031 71.8021 66.5031 73.7812ZM68.632 69.3672C69.6737 69.3672 70.5721 69.6471 71.3273 70.207C72.4211 71.0143 72.968 72.1797 72.968 73.7031C72.968 74.8359 72.6294 75.8125 71.9523 76.6328C71.093 77.6745 69.9406 78.1953 68.4953 78.1953C67.4406 78.1953 66.5227 77.8828 65.7414 77.2578C64.6737 76.3984 64.1398 75.2135 64.1398 73.7031C64.1398 72.6094 64.4654 71.6719 65.1164 70.8906C65.9758 69.875 67.1477 69.3672 68.632 69.3672ZM78.5055 77.4922C78.5706 77.4922 78.6292 77.4987 78.6813 77.5117C78.8766 77.5378 78.9742 77.7005 78.9742 78H73.6813V77.4922C73.9417 77.4922 74.1565 77.4727 74.3258 77.4336C74.7164 77.3294 74.9117 76.9974 74.9117 76.4375V70.1289H73.6813V69.6406H76.9039L77.0211 71.4766C77.1773 71.099 77.3922 70.7604 77.6656 70.4609C78.2906 69.8099 79.0003 69.4844 79.7945 69.4844C79.9508 69.4844 80.107 69.5039 80.2633 69.543C80.8753 69.6992 81.1813 70.0898 81.1813 70.7148C81.1813 70.8711 81.1487 71.0208 81.0836 71.1641C80.8883 71.6198 80.5563 71.8477 80.0875 71.8477C79.9573 71.8477 79.8336 71.8281 79.7164 71.7891C79.469 71.7109 79.2346 71.4635 79.0133 71.0469C78.844 70.7474 78.6747 70.5977 78.5055 70.5977C78.4013 70.5977 78.2776 70.6432 78.1344 70.7344C77.5224 71.1641 77.1708 72.0039 77.0797 73.2539V77.4922H78.5055ZM88.0766 77.6484C88.949 77.6484 89.4893 77.3555 89.6977 76.7695C89.7367 76.6393 89.7562 76.5091 89.7562 76.3789C89.7562 75.7539 89.3461 75.2266 88.5258 74.7969C88.3435 74.7057 88.057 74.5755 87.6664 74.4062C86.6638 73.9635 85.9932 73.5599 85.6547 73.1953C85.3031 72.7786 85.1273 72.2969 85.1273 71.75C85.1273 70.7214 85.6872 70.0117 86.807 69.6211C87.3018 69.4518 87.8552 69.3672 88.4672 69.3672C89.4177 69.3672 90.199 69.5495 90.8109 69.9141C90.8109 69.5234 90.9151 69.3086 91.1234 69.2695C91.1885 69.2565 91.2536 69.25 91.3187 69.25V71.6914H90.7328C90.6807 70.5065 90.0297 69.9076 88.7797 69.8945C87.9073 69.8945 87.3669 70.168 87.1586 70.7148C87.1065 70.8581 87.0805 71.0013 87.0805 71.1445C87.0805 71.6914 87.4711 72.1667 88.2523 72.5703C88.4216 72.6484 88.6951 72.7721 89.0727 72.9414C90.1013 73.3841 90.7849 73.7943 91.1234 74.1719C91.5141 74.6146 91.7094 75.1354 91.7094 75.7344C91.7094 76.8411 91.1365 77.5833 89.9906 77.9609C89.5219 78.1172 89.001 78.1953 88.4281 78.1953C87.3344 78.1953 86.4164 77.9805 85.6742 77.5508C85.6742 77.8893 85.5896 78.0846 85.4203 78.1367C85.3422 78.1497 85.251 78.1562 85.1469 78.1562V75.1875H85.7719C85.7979 76.8151 86.5661 77.6354 88.0766 77.6484ZM94.9617 73.7812C94.9617 74.7057 95.0268 75.4479 95.157 76.0078C95.4174 77.1276 96.0359 77.6875 97.0125 77.6875C97.338 77.6875 97.631 77.6224 97.8914 77.4922C98.6857 77.0625 99.0828 75.7995 99.0828 73.7031C99.0828 72.8177 99.0177 72.1016 98.8875 71.5547C98.6271 70.4349 98.0021 69.875 97.0125 69.875C96.6349 69.875 96.3029 69.9596 96.0164 70.1289C95.3133 70.5846 94.9617 71.8021 94.9617 73.7812ZM97.0906 69.3672C98.1323 69.3672 99.0307 69.6471 99.7859 70.207C100.88 71.0143 101.427 72.1797 101.427 73.7031C101.427 74.8359 101.088 75.8125 100.411 76.6328C99.5516 77.6745 98.3992 78.1953 96.9539 78.1953C95.8992 78.1953 94.9812 77.8828 94.2 77.2578C93.1323 76.3984 92.5984 75.2135 92.5984 73.7031C92.5984 72.6094 92.924 71.6719 93.575 70.8906C94.4344 69.875 95.6062 69.3672 97.0906 69.3672ZM111.769 77.4922C111.847 77.4922 111.918 77.4987 111.984 77.5117C112.153 77.5378 112.238 77.7005 112.238 78H108.995L108.898 76.2812C108.807 76.4766 108.696 76.6719 108.566 76.8672C107.941 77.7526 107.101 78.1953 106.046 78.1953C104.197 78.1823 103.266 77.1016 103.253 74.9531V70.1289H102.003V69.6406H105.402V75.2656C105.402 75.4349 105.415 75.6042 105.441 75.7734C105.571 76.75 106.066 77.2383 106.925 77.2383C107.185 77.2383 107.446 77.1667 107.706 77.0234C108.396 76.6068 108.774 75.8776 108.839 74.8359L108.859 70.1289H107.687V69.6406H111.007V77.4922H111.769ZM117.345 77.4922C117.423 77.4922 117.502 77.4987 117.58 77.5117C117.749 77.5508 117.834 77.7135 117.834 78H112.697V77.4922C113.114 77.4922 113.42 77.4661 113.615 77.4141C114.005 77.2969 114.201 76.9583 114.201 76.3984V65.8125H112.697V65.3047H116.349V77.4922H117.345Z" fill="black"/>
<g clip-path="url(#clip0_74_909)">
<path d="M37.037 19.8375C37.0758 19.8375 37.0758 19.8375 37.1154 19.8375C37.9003 19.8374 38.6747 19.8475 39.4529 19.9618C39.5082 19.9697 39.5635 19.9775 39.6188 19.9854C40.8164 20.1584 42.0017 20.4163 43.0757 20.9962C43.1384 21.0299 43.2018 21.0626 43.2651 21.0953C43.5875 21.27 43.8353 21.5033 44.0944 21.7591C44.1258 21.7892 44.1572 21.8193 44.1896 21.8504C44.3739 22.0298 44.5368 22.2211 44.6969 22.4223C44.7684 22.5106 44.8423 22.5937 44.9195 22.6769C45.3226 23.1291 45.6639 23.6393 45.9586 24.1683C45.9714 24.1907 45.9842 24.2131 45.9974 24.2362C46.9626 25.9277 47.3179 28.0572 47.4804 29.9809C47.4858 30.0441 47.4858 30.0441 47.4912 30.1085C47.5784 31.1926 47.566 32.2788 47.5632 33.3655C47.5624 33.6507 47.5622 33.9359 47.562 34.2211C47.5616 34.7406 47.5609 35.2601 47.56 35.7796C47.5581 36.963 47.5575 38.1464 47.5569 39.3299C47.5568 39.5222 47.5567 39.7146 47.5566 39.907C47.5553 42.118 47.5595 44.329 47.5719 46.54C47.5729 46.7238 47.5739 46.9076 47.5749 47.0914C47.5832 48.6751 47.597 50.2587 47.6177 51.8424C47.6281 52.6429 47.6366 53.4434 47.6419 54.244C47.6426 54.3347 47.6432 54.4254 47.6439 54.5161C47.6464 54.8705 47.6488 55.2248 47.6507 55.5792C47.6519 55.8047 47.6535 56.0302 47.6553 56.2557C47.6559 56.339 47.6564 56.4224 47.6567 56.5057C47.6598 57.2736 47.6679 58.0772 48.1881 58.6958C48.5364 59.0374 49.057 59.2126 49.5058 59.3783C49.7176 59.4572 49.7176 59.4572 49.8012 59.5411C49.7869 59.6415 49.7869 59.6415 49.7631 59.7323C45.7127 59.9008 45.7127 59.9008 44.2228 59.902C44.1747 59.9022 44.1267 59.9025 44.0772 59.9027C42.8781 59.9066 41.7418 59.7353 40.8409 58.8763C39.2534 57.239 39.7206 54.0517 39.7085 51.9576C39.7083 51.9263 39.7081 51.8949 39.7079 51.8626C39.7053 51.4032 39.7029 50.9438 39.7007 50.4844C39.6915 48.5575 39.6915 48.5575 39.6742 46.6306C39.6736 46.5843 39.6731 46.5379 39.6726 46.4902C39.6706 46.3236 39.6682 46.1571 39.6657 45.9906C39.665 45.9475 39.6644 45.9044 39.6637 45.86C39.6534 45.1893 39.6372 44.519 39.6147 43.8486C39.5709 42.5398 39.5552 41.2321 39.5542 39.9226C39.5539 39.6405 39.5532 39.3584 39.5525 39.0763C39.5511 38.5714 39.55 38.0665 39.5492 37.5616C39.5491 37.5318 39.5491 37.5021 39.549 37.4714C39.5486 37.23 39.5482 36.9885 39.5478 36.7471C39.5475 36.5349 39.5471 36.3227 39.5468 36.1105C39.5467 36.0805 39.5467 36.0506 39.5466 36.0198C39.5458 35.5149 39.5446 35.0101 39.5433 34.5053C39.5425 34.225 39.5419 33.9448 39.5417 33.6645C39.7762 28.5603 39.7762 28.5603 37.9517 24.0325C37.5537 23.6465 37.0926 23.4036 36.5614 23.2505C36.5357 23.243 36.51 23.2355 36.4835 23.2278C35.6307 22.9902 34.6453 23.0335 33.7841 23.2123C33.7481 23.2197 33.712 23.227 33.6749 23.2347C32.5167 23.4791 31.2338 23.8236 30.3601 24.6654C30.3356 24.6876 30.3111 24.7098 30.2859 24.7326C30.0323 24.971 29.83 25.2551 29.6248 25.5351C29.5827 25.5922 29.5402 25.6489 29.4974 25.7054C29.4368 25.7851 29.3776 25.8656 29.3186 25.9465C29.3002 25.9702 29.2819 25.994 29.263 26.0185C29.1734 26.1446 29.1297 26.2343 29.1431 26.3909C29.154 26.4534 29.1668 26.5156 29.1807 26.5775C29.189 26.6154 29.1973 26.6534 29.2058 26.6926C29.2365 26.8274 29.2692 26.9617 29.3019 27.0961C29.801 29.19 29.9124 31.3066 29.9084 33.4531C29.9083 33.5395 29.9082 33.6259 29.9082 33.7123C29.9078 34.4076 29.9029 35.1026 29.89 35.7977C29.8891 35.8469 29.8882 35.896 29.8873 35.9467C29.8855 36.0428 29.8837 36.139 29.8819 36.2352C29.866 37.1059 29.8625 37.9763 29.8632 38.8472C29.8633 38.9621 29.8633 39.0771 29.8633 39.1921C29.8641 41.1986 29.8717 43.205 29.88 45.2114C29.8816 45.5984 29.883 45.9855 29.8844 46.3725C29.896 50.4304 29.896 50.4304 29.989 54.4871C29.9953 54.6718 30.0011 54.8566 30.0068 55.0414C30.0353 55.9843 30.0353 55.9843 30.0932 56.9257C30.096 56.9618 30.0988 56.9979 30.1017 57.035C30.1529 57.6207 30.2656 58.3735 30.7215 58.7859C30.9047 58.9148 31.0377 58.9418 31.2613 58.9388C31.2885 58.9387 31.3156 58.9385 31.3437 58.9384C31.5192 58.9355 31.6801 58.9161 31.8501 58.87C31.9507 58.8452 32.0454 58.8451 32.1482 58.8528C32.1862 58.891 32.1862 58.891 32.1862 59.0129C32.1343 59.2118 32.0516 59.2803 31.8819 59.3882C31.4311 59.6391 30.9593 59.7645 30.45 59.8115C30.3977 59.8164 30.3977 59.8164 30.3443 59.8214C29.9591 59.855 29.5745 59.8647 29.1881 59.8704C29.1266 59.8714 29.1266 59.8714 29.0638 59.8725C27.6942 59.8954 26.3242 59.8938 24.9545 59.8944C24.9144 59.8944 24.8743 59.8945 24.833 59.8945C24.7928 59.8945 24.7527 59.8945 24.7113 59.8945C24.3825 59.8947 24.0536 59.8955 23.7247 59.8964C23.4028 59.8972 23.0809 59.8976 22.759 59.8976C22.5688 59.8977 22.3785 59.8979 22.1882 59.8986C22.0104 59.8992 21.8325 59.8993 21.6547 59.899C21.5902 59.8989 21.5257 59.8991 21.4612 59.8995C21.1224 59.9014 20.7939 59.8853 20.4586 59.8334C20.4141 59.8265 20.4141 59.8265 20.3687 59.8195C19.8871 59.7376 19.5155 59.4629 19.1748 59.1205C19.1748 59.07 19.1748 59.0195 19.1748 58.9675C19.3174 58.9152 19.416 58.945 19.56 58.9842C19.9579 59.0812 20.2913 59.0729 20.6633 58.8894C21.0309 58.6549 21.2164 58.1751 21.3107 57.7667C21.7473 55.514 21.7617 53.1467 21.838 50.8604C21.839 50.8288 21.8401 50.7973 21.8412 50.7647C21.8559 50.325 21.8664 49.8853 21.876 49.4455C21.8768 49.41 21.8776 49.3744 21.8784 49.3378C21.9178 47.5378 21.9203 45.7381 21.9204 43.9377C21.9204 43.694 21.9205 43.4504 21.9206 43.2067C21.921 42.396 21.9211 41.5853 21.9211 40.7746C21.9211 40.7314 21.9211 40.6882 21.9211 40.6436C21.9211 40.6004 21.9211 40.5571 21.9211 40.5125C21.9211 39.8101 21.9214 39.1078 21.922 38.4054C21.9225 37.6772 21.9228 36.9489 21.9228 36.2206C21.9227 35.8146 21.9228 35.4085 21.9233 35.0025C22.1219 29.8134 22.1219 29.8134 20.2781 24.13C20.1571 24.0183 20.0321 23.919 19.8977 23.8241C19.8702 23.8042 19.8428 23.7844 19.8146 23.7639C18.7997 23.0903 17.385 23.0793 16.2311 23.3064C16.1982 23.3132 16.1652 23.32 16.1312 23.327C16.0951 23.3344 16.0589 23.3418 16.0217 23.3494C13.9842 23.7794 12.7028 24.5044 11.5623 26.2508C11.5196 26.3168 11.4769 26.3829 11.4343 26.449C11.382 26.5292 11.3286 26.6084 11.2743 26.6873C11.2326 26.75 11.2326 26.75 11.1901 26.8141C11.1666 26.8485 11.1432 26.883 11.119 26.9185C11.0013 27.2084 11.079 27.5832 11.1014 27.8893C11.1046 27.9348 11.1078 27.9803 11.1112 28.0272C11.1199 28.1512 11.1289 28.2751 11.1378 28.399C11.1473 28.53 11.1566 28.6611 11.1659 28.7921C11.1816 29.0126 11.1974 29.2332 11.2133 29.4537C11.2335 29.7337 11.2535 30.0137 11.2734 30.2937C11.2908 30.5375 11.3082 30.7814 11.3257 31.0252C11.3312 31.1019 11.3366 31.1787 11.3421 31.2554C11.3778 31.7536 11.4144 32.2516 11.455 32.7495C11.4828 33.0921 11.505 33.4341 11.5181 33.7777C11.5202 33.8303 11.5223 33.883 11.5245 33.9356C11.5302 34.079 11.5356 34.2224 11.541 34.3658C11.5445 34.4601 11.548 34.5544 11.5516 34.6487C11.6487 37.2408 11.6976 39.8346 11.755 42.4279C11.7566 42.5005 11.7582 42.5731 11.7598 42.6457C11.7622 42.7552 11.7646 42.8647 11.767 42.9742C11.776 43.3802 11.785 43.7862 11.794 44.1922C11.7949 44.2288 11.7957 44.2655 11.7965 44.3032C11.9064 49.551 11.9064 49.551 13.0115 59.1587C13.2069 59.3379 13.43 59.4512 13.6963 59.4646C13.8915 59.4496 14.0569 59.4076 14.2242 59.3045C14.3431 59.2352 14.3431 59.2352 14.4358 59.2448C14.4554 59.2542 14.475 59.2637 14.4952 59.2734C14.4845 59.4026 14.4686 59.4537 14.374 59.5449C13.8765 59.8942 13.4604 60.0126 12.8546 60.008C12.8047 60.0079 12.7548 60.0079 12.7033 60.0078C12.5649 60.0076 12.4264 60.0069 12.2879 60.0061C12.1374 60.0054 11.9869 60.0051 11.8364 60.0047C11.5716 60.004 11.3067 60.003 11.0418 60.0018C10.6382 60 10.2346 59.9988 9.831 59.9977C9.07403 59.9955 8.31707 59.9926 7.56011 59.989C7.10496 59.9869 6.6498 59.985 6.19464 59.9835C5.86708 59.9823 5.53951 59.9809 5.21195 59.9793C5.0192 59.9783 4.82645 59.9775 4.63369 59.9769C1.01383 59.9666 1.01383 59.9666 0.0862373 59.0819C0.0380864 59.0058 0.0380864 59.0058 0.0493811 58.9009C0.0582088 58.8724 0.0670364 58.8439 0.0761316 58.8146C0.225802 58.8304 0.351926 58.8693 0.489873 58.9269C0.903406 59.0975 1.26352 59.1499 1.68904 58.9774C2.21918 58.7201 2.45984 58.2027 2.64894 57.6673C2.94592 56.7479 2.99552 55.7663 3.04429 54.8074C3.0459 54.7761 3.04751 54.7447 3.04918 54.7125C3.0836 54.0404 3.1071 53.3682 3.12391 52.6954C3.12469 52.6645 3.12548 52.6336 3.12629 52.6017C3.17286 50.7677 3.16967 48.9334 3.1676 47.099C3.16728 46.8123 3.16713 46.5257 3.16698 46.239C3.16536 43.3268 3.1496 40.4158 3.08485 37.5042C3.08161 37.3572 3.07843 37.2102 3.07529 37.0633C3.00901 33.9707 2.92985 30.8785 2.78209 27.7886C2.77746 27.6913 2.7729 27.594 2.76837 27.4968C2.73864 26.8634 2.70262 26.2315 2.64373 25.6002C2.63688 25.5267 2.63688 25.5267 2.62989 25.4517C2.49762 24.1003 2.17914 22.4642 1.10335 21.5297C0.934271 21.4009 0.753317 21.2937 0.570719 21.1855C0.347513 21.0472 0.347513 21.0472 0.304403 20.9226C0.358489 20.7527 0.450405 20.7134 0.603265 20.6311C1.5428 20.1795 2.60035 19.9966 3.63766 19.9923C3.69988 19.9919 3.69988 19.9919 3.76336 19.9916C3.85087 19.9912 3.93838 19.991 4.02589 19.9908C4.15704 19.9905 4.28816 19.9893 4.4193 19.9881C6.25273 19.9792 7.83645 20.642 9.15703 21.9264C9.54336 22.3249 9.8273 22.7591 10.082 23.2505C10.1048 23.2937 10.1048 23.2937 10.1281 23.3378C10.2557 23.5853 10.3537 23.8387 10.4458 24.1014C10.4606 24.1432 10.4755 24.185 10.4908 24.228C10.5946 24.5239 10.6894 24.8202 10.7668 25.1243C10.7964 25.0648 10.8261 25.0052 10.8557 24.9457C10.8826 24.8916 10.9096 24.8375 10.9366 24.7834C11.012 24.6322 11.0867 24.4807 11.1601 24.3284C11.9319 22.7351 12.9653 21.1795 14.6987 20.5771C15.658 20.262 16.6512 20.0988 17.653 20C17.7138 19.994 17.7138 19.994 17.7758 19.9879C18.3041 19.9446 18.8354 19.9524 19.365 19.9522C19.3914 19.9522 19.4177 19.9522 19.4449 19.9522C20.2234 19.9517 20.99 19.9642 21.7619 20.0765C21.8467 20.0877 21.9316 20.0989 22.0164 20.1101C23.7122 20.3439 25.5746 20.807 26.7195 22.1796C26.7924 22.2665 26.8689 22.3495 26.9455 22.4331C27.158 22.6704 27.3529 22.9198 27.5447 23.174C27.5648 23.2005 27.5848 23.2269 27.6055 23.2542C28.3316 24.2187 28.3316 24.2187 28.4959 24.7801C28.521 24.7801 28.5461 24.7801 28.572 24.7801C28.5804 24.7509 28.5888 24.7217 28.5975 24.6916C29.1437 23.1689 30.3178 21.4067 31.8024 20.6869C33.4124 19.9422 35.2923 19.8378 37.037 19.8375Z" fill="black"/>
<path d="M93.3817 -0.00779556C93.4316 -0.00812253 93.4316 -0.00812253 93.4824 -0.0084561C93.5523 -0.0088147 93.6222 -0.00906622 93.6921 -0.00921466C93.7966 -0.00958306 93.901 -0.010771 94.0054 -0.0119782C95.3978 -0.0203566 96.5266 0.464311 97.544 1.41683C97.6155 1.48354 97.6888 1.54623 97.7642 1.60848C97.9111 1.73492 98.034 1.87666 98.1566 2.02674C98.1719 2.04548 98.1872 2.06422 98.2029 2.08352C98.8713 2.90689 99.378 3.8092 99.7164 4.81833C99.7334 4.86882 99.7334 4.86882 99.7507 4.92033C100.313 6.62463 100.529 8.40588 100.648 10.1894C100.65 10.2253 100.653 10.2612 100.655 10.2982C100.708 11.0869 100.747 11.876 100.784 12.6656C100.793 12.8581 100.802 13.0507 100.811 13.2432C100.828 13.6065 100.845 13.9697 100.862 14.333C100.892 14.9821 100.923 15.6312 100.953 16.2803C100.964 16.5063 100.975 16.7323 100.985 16.9583C100.993 17.134 101.001 17.3096 101.01 17.4852C101.011 17.5189 101.013 17.5526 101.015 17.5872C101.04 18.1304 101.068 18.6733 101.099 19.2162C101.13 19.7641 101.146 20.3122 101.16 20.8608C101.164 21.0058 101.168 21.1509 101.172 21.2959C101.192 22.0671 101.21 22.8383 101.226 23.6096C101.236 24.1149 101.252 24.6195 101.276 25.1243C101.294 25.0876 101.312 25.051 101.331 25.0133C101.413 24.8459 101.497 24.6791 101.581 24.5124C101.594 24.4856 101.607 24.4589 101.621 24.4313C101.955 23.7701 102.348 23.1494 102.798 22.5621C102.826 22.5253 102.854 22.4886 102.883 22.4507C104.005 21.0251 105.575 20.5821 107.314 20.3346C107.354 20.3288 107.395 20.323 107.436 20.3171C108.26 20.208 109.083 20.1767 109.913 20.179C109.992 20.1792 110.072 20.1793 110.151 20.1794C110.914 20.1808 111.667 20.1971 112.423 20.3059C112.474 20.3128 112.524 20.3196 112.575 20.3264C114.68 20.6129 116.602 21.1888 117.948 22.9341C118.015 23.0193 118.085 23.0973 118.159 23.1764C120.472 25.7783 120.726 29.7551 120.725 33.7674C120.724 33.9485 120.724 34.1295 120.724 34.3106C120.724 35.1227 120.722 35.9348 120.708 36.7468C120.707 36.7724 120.707 36.7981 120.707 36.8245C120.705 36.9293 120.703 37.034 120.701 37.1388C120.677 38.5242 120.68 39.9087 120.691 41.2943C120.694 41.6605 120.697 42.0267 120.699 42.393C120.7 42.5313 120.701 42.6697 120.702 42.808C120.702 42.8426 120.703 42.8771 120.703 42.9127C120.705 43.1586 120.706 43.4046 120.708 43.6506C120.715 44.6149 120.721 45.5792 120.727 46.5436C120.728 46.7204 120.729 46.8971 120.73 47.0739C120.73 47.2136 120.731 47.3533 120.732 47.493C120.732 47.5273 120.732 47.5616 120.732 47.597C120.734 47.9651 120.736 48.3332 120.738 48.7013C120.74 49.0743 120.742 49.4473 120.745 49.8203C120.745 49.865 120.745 49.865 120.745 49.9105C120.751 50.8518 120.763 51.7928 120.78 52.7339C120.79 53.3259 120.797 53.9178 120.801 54.5099C120.801 54.6371 120.802 54.7642 120.803 54.8914C120.805 55.2255 120.807 55.5596 120.809 55.8936C120.809 56.1047 120.811 56.3157 120.813 56.5267C120.813 56.6049 120.813 56.6832 120.814 56.7615C120.815 57.4675 120.828 58.2694 121.345 58.8109C121.762 59.1632 122.305 59.3644 122.815 59.5367C122.924 59.5793 122.924 59.5793 123 59.6558C122.986 59.7562 122.986 59.7562 122.962 59.847C118.831 60.016 118.831 60.016 117.379 60.0166C117.304 60.0167 117.228 60.017 117.152 60.0174C116.018 60.0209 114.818 59.8864 113.945 59.0822C113.921 59.0606 113.897 59.0391 113.872 59.0169C112.928 58.1241 112.807 56.722 112.761 55.4971C112.759 55.4419 112.759 55.4419 112.757 55.3856C112.692 53.7317 112.692 52.0753 112.681 50.4204C112.68 50.3305 112.68 50.2406 112.679 50.1507C112.675 49.575 112.671 48.9994 112.668 48.4237C112.66 46.8349 112.66 46.8349 112.636 45.2463C112.636 45.2091 112.635 45.1719 112.634 45.1336C112.625 44.6921 112.612 44.2509 112.594 43.8096C112.517 41.7732 112.53 39.7366 112.535 37.699C112.536 36.9608 112.537 36.2226 112.538 35.4844C112.538 35.2103 112.539 34.9362 112.54 34.662C112.543 33.1992 112.532 31.7351 112.448 30.2742C112.447 30.2415 112.445 30.2088 112.443 30.1751C112.32 26.9769 112.32 26.9769 110.826 24.283C109.96 23.5179 108.776 23.3479 107.659 23.4134C105.971 23.5379 103.954 24.0132 102.792 25.3326C102.352 25.8588 101.964 26.4343 101.603 27.0174C101.564 27.0785 101.524 27.1387 101.482 27.1977C101.307 27.4562 101.285 27.6537 101.299 27.9612C101.301 28.0283 101.301 28.0283 101.302 28.0969C101.304 28.1922 101.307 28.2875 101.31 28.3828C101.316 28.5715 101.317 28.7601 101.319 28.9488C101.322 29.1767 101.325 29.4046 101.329 29.6325C101.331 29.7753 101.333 29.9181 101.335 30.0609C101.339 30.3405 101.343 30.6202 101.347 30.8998C101.351 31.1303 101.354 31.3609 101.358 31.5914C101.369 32.3284 101.38 33.0655 101.391 33.8026C101.399 34.3336 101.407 34.8647 101.415 35.3957C101.458 38.3552 101.504 41.3146 101.563 44.2739C101.564 44.3649 101.566 44.4559 101.568 44.5469C101.632 47.8075 101.698 51.0696 102.903 58.9191C103.05 59.0368 103.182 59.0822 103.369 59.0822C103.6 59.0388 103.754 58.9497 103.916 58.7804C103.977 58.738 103.977 58.738 104.061 58.7506C104.095 58.7633 104.095 58.7633 104.13 58.7763C104.096 58.9579 104.096 58.9579 104.054 59.0439C104.028 59.0439 104.003 59.0439 103.977 59.0439C103.967 59.0665 103.957 59.0891 103.946 59.1124C103.786 59.414 103.486 59.5744 103.179 59.694C102.922 59.7694 102.676 59.7813 102.41 59.7793C102.369 59.7793 102.328 59.7793 102.285 59.7793C102.198 59.7792 102.111 59.7789 102.024 59.7784C101.896 59.7777 101.768 59.7776 101.64 59.7776C101.21 59.7769 100.781 59.7702 100.351 59.7564C99.6664 59.7345 98.983 59.7278 98.2985 59.7306C98.1191 59.7313 97.9398 59.7317 97.7605 59.732C97.2517 59.7329 96.743 59.7342 96.2343 59.736C95.9506 59.7369 95.6669 59.7376 95.3832 59.7379C95.2348 59.7381 95.0865 59.7385 94.9382 59.7392C94.3008 59.7423 93.6659 59.7322 93.0294 59.6978C93.0003 59.6963 92.9712 59.6948 92.9413 59.6932C91.8907 59.6365 90.7431 59.562 89.9774 58.7509C89.6555 58.3759 89.6555 58.3759 89.6725 58.1262C89.7364 58.0994 89.7364 58.0994 89.8247 58.0879C89.9177 58.1374 89.9177 58.1374 90.0196 58.2098C90.3267 58.4147 90.6263 58.5748 91.0041 58.5086C91.4068 58.3806 91.635 58.0915 91.8268 57.727C92.8063 55.6898 92.6549 53.0619 92.7161 50.8604C92.7172 50.8225 92.7182 50.7846 92.7193 50.7456C92.7834 48.4409 92.7983 46.1351 92.7985 43.8297C92.7986 43.5993 92.7987 43.3689 92.7988 43.1385C92.7994 42.2483 92.7995 41.3581 92.7994 40.4679C92.7993 40.209 92.7993 39.95 92.7993 39.691C92.7994 36.0825 92.7988 32.474 92.7239 26.4621C92.7179 26.0556 92.7122 25.6491 92.7069 25.2426C92.6649 22.0839 92.6058 18.9255 91.4986 3.74758C91.4892 3.71908 91.4798 3.69058 91.4702 3.66122C91.1982 2.84712 90.7715 2.09517 90.0886 1.56068C89.9938 1.48046 89.9792 1.46358 89.9507 1.33601C90.0063 1.09729 90.1932 0.974046 90.3882 0.846052C90.4134 0.829477 90.4386 0.812902 90.4646 0.795824C91.3233 0.243901 92.369 -0.00243793 93.3817 -0.00779556Z" fill="black"/>
<path d="M69.6773 19.9497C69.7959 19.9499 69.9144 19.9496 70.033 19.9489C71.6153 19.9397 73.1341 20.1081 74.6693 20.5035C74.7722 20.5299 74.8753 20.5558 74.9784 20.5817C75.925 20.8196 76.8679 21.0782 77.7929 21.391C77.8184 21.3996 77.8438 21.4082 77.87 21.417C78.7379 21.7105 79.5712 22.0733 80.3895 22.4857C80.4396 22.5107 80.4396 22.5107 80.4906 22.5363C81.6562 23.1239 82.6636 23.9219 83.5817 24.848C83.6497 24.9165 83.7178 24.9848 83.786 25.0531C84.0063 25.2744 84.2209 25.4972 84.4223 25.7361C84.4776 25.7976 84.5331 25.859 84.5888 25.9202C84.7351 26.0833 84.875 26.2505 85.0123 26.4213C85.0806 26.5063 85.1494 26.5908 85.2186 26.675C87.4873 29.4426 89.4054 32.8278 89.8247 36.4436C89.828 36.4708 89.8313 36.498 89.8347 36.5261C89.914 37.204 89.9144 37.882 89.9127 38.5636C89.9126 38.6228 89.9125 38.682 89.9125 38.7412C89.9108 39.6039 89.8932 40.4602 89.7974 41.3183C89.7857 41.4239 89.7744 41.5295 89.7632 41.6351C89.3933 45.0809 88.7398 48.6371 85.7159 54.8757C85.6934 54.9017 85.6709 54.9277 85.6478 54.9544C85.2295 55.4358 84.7779 55.9046 84.2701 56.2906C84.2268 56.3247 84.1835 56.3587 84.1402 56.3928C83.4725 56.9129 82.7479 57.3533 82.0245 57.7897C81.9072 57.861 81.7907 57.9334 81.6743 58.0061C79.462 59.3785 76.9834 59.7425 74.4289 59.7692C74.3135 59.7704 74.1981 59.7719 74.0827 59.7733C71.5082 59.8057 71.5082 59.8058 70.2526 59.6309C70.1481 59.6166 70.0434 59.603 69.9387 59.5896C68.2316 59.3709 66.5335 59.0927 64.8409 58.7811C64.7921 58.7721 64.7432 58.7631 64.6928 58.7538C64.5534 58.7281 64.414 58.7022 64.2746 58.6762C64.234 58.6687 64.1934 58.6612 64.1515 58.6534C63.8682 58.6001 63.5877 58.5374 63.3072 58.4704C63.2947 58.4199 63.2821 58.3694 63.2692 58.3174C63.4088 58.2512 63.4936 58.2337 63.6449 58.2629C63.6817 58.2694 63.7184 58.276 63.7563 58.2828C63.7964 58.2902 63.8366 58.2977 63.8779 58.3054C64.3035 58.3779 64.7271 58.4242 65.1572 58.4584C65.1852 58.4607 65.2133 58.463 65.2421 58.4654C66.0966 58.535 66.9514 58.5548 67.8085 58.554C67.8554 58.554 67.9024 58.554 67.9508 58.5539C70.2222 58.5509 72.5065 58.3946 74.7208 57.8585C74.7561 57.8503 74.7914 57.842 74.8278 57.8335C75.9222 57.5736 76.9498 56.9699 77.8405 56.2906C77.8714 56.2672 77.9023 56.2438 77.9341 56.2197C78.0179 56.1551 78.1006 56.0894 78.1829 56.0229C78.2152 55.9972 78.2474 55.9714 78.2807 55.9448C78.3887 55.8574 78.4952 55.7684 78.6014 55.6788C78.6555 55.6343 78.6555 55.6343 78.7108 55.5888C80.8178 53.7695 81.7919 50.2345 82.4059 47.6099C82.4124 47.5825 82.4189 47.555 82.4256 47.5267C82.8683 45.65 83.1759 43.7709 83.174 41.8379C83.1739 41.7957 83.1739 41.7535 83.1739 41.7101C83.1728 40.9967 83.153 40.2902 83.0907 39.5793C83.0883 39.5515 83.0859 39.5236 83.0835 39.4949C82.8021 36.2507 82.2133 32.8837 77.8025 24.9331C77.6492 24.8046 77.4918 24.6817 77.3328 24.5605C77.2728 24.5147 77.2132 24.4683 77.1536 24.4219C76.8728 24.2055 76.5813 24.0108 76.2807 23.8241C76.2571 23.8093 76.2335 23.7944 76.2093 23.7792C74.4686 22.6887 72.5575 22.2822 70.5358 22.1415C70.5077 22.1393 70.4797 22.1372 70.4507 22.135C67.5644 21.9166 64.5218 22.7659 62.2936 24.6809C62.2746 24.6974 62.2557 24.7139 62.2362 24.731C62.1278 24.8184 62.1278 24.8184 62.0159 24.8717C61.8614 24.9532 61.7561 25.0634 61.6356 25.1888C61.6121 25.213 61.5885 25.2371 61.5642 25.262C61.4265 25.4039 61.2922 25.5479 61.1648 25.6992C61.0856 25.792 61.0027 25.8808 60.9199 25.9704C60.7204 26.1906 60.5378 26.4216 60.3574 26.6579C60.301 26.7313 60.2439 26.8041 60.1867 26.8768C59.6486 27.5653 59.1738 28.3033 58.7418 29.0631C58.7218 29.0984 58.7017 29.1336 58.6811 29.17C57.4317 31.3868 56.8335 33.8814 56.6113 36.4054C56.6072 36.4509 56.6072 36.4509 56.603 36.4975C56.3251 39.7479 57.2041 42.5506 59.2745 45.0478C59.3053 45.086 59.3362 45.1241 59.3679 45.1634C59.6135 45.4629 59.8797 45.7408 60.1519 46.0158C60.1865 46.0509 60.2211 46.086 60.2568 46.1222C60.4601 46.3258 60.6701 46.5138 60.8942 46.6941C60.9671 46.753 61.0379 46.8127 61.1075 46.8754C62.3886 48.0194 63.8944 48.6429 65.6105 48.5614C66.5133 48.5058 67.3903 48.294 68.2531 48.0306C68.2835 48.0215 68.3138 48.0124 68.3451 48.003C69.7201 47.5866 71.4203 46.9211 72.1385 45.5797C72.5428 44.7757 72.7453 43.8442 72.7502 42.9447C72.7504 42.9129 72.7506 42.881 72.7508 42.8482C72.7512 42.7812 72.7514 42.7141 72.7516 42.647C72.752 42.5468 72.7531 42.4467 72.7543 42.3465C72.7588 41.6697 72.6466 41.0616 72.4286 40.423C72.4188 40.394 72.4091 40.365 72.3991 40.335C72.1458 39.5826 71.8264 38.8599 71.503 38.1359C71.4727 38.0679 71.4425 38 71.4123 37.932C71.376 37.8505 71.3394 37.7693 71.3024 37.6882C71.2785 37.6348 71.2785 37.6348 71.2541 37.5804C71.2402 37.5498 71.2263 37.5193 71.212 37.4878C71.1794 37.39 71.1772 37.3109 71.1826 37.2084C71.2454 37.1958 71.3081 37.1832 71.3728 37.1702C71.6486 37.5803 71.8853 38.0075 72.117 38.444C72.1658 38.5357 72.2154 38.6269 72.2654 38.718C72.8716 39.834 73.4628 41.086 73.7316 42.3327C73.7377 42.3599 73.7437 42.3871 73.75 42.4151C74.1483 44.2888 73.6731 46.4789 72.6615 48.0823C72.4939 48.3383 72.3021 48.5703 72.0957 48.7954C72.0648 48.8292 72.0339 48.8629 72.0021 48.8977C70.0103 50.9807 66.2623 51.898 63.5037 51.9803C60.627 52.0306 57.5216 50.9761 55.168 49.3284C55.1442 49.3118 55.1204 49.2952 55.0959 49.2781C54.6567 48.9627 54.2676 48.593 53.8888 48.2083C53.8192 48.1376 53.7493 48.0672 53.6793 47.9969C53.4763 47.7922 53.2754 47.5875 53.0889 47.3674C53.0057 47.2694 52.9179 47.176 52.8306 47.0817C52.6694 46.9062 52.5157 46.7263 52.3667 46.5401C52.2981 46.4544 52.2289 46.3695 52.159 46.285C51.861 45.9235 51.5847 45.5513 51.323 45.1625C51.3051 45.1359 51.2871 45.1092 51.2686 45.0817C50.3479 43.7037 49.6116 42.1059 49.6033 40.4166C49.603 40.3803 49.6027 40.344 49.6024 40.3066C49.5978 39.4835 49.608 38.6748 49.7251 37.8585C49.7324 37.8066 49.7396 37.7547 49.7468 37.7028C50.0623 35.4716 50.7124 33.2854 51.652 31.2403C51.6988 31.1382 51.7449 31.0359 51.7909 30.9335C52.2219 29.9831 52.7661 29.0777 53.4014 28.2518C53.4795 28.1496 53.5556 28.0458 53.6319 27.9422C53.8633 27.6325 54.1099 27.336 54.3595 27.0411C54.3844 27.0115 54.3844 27.0115 54.4099 26.9813C54.7811 26.5455 55.1796 26.1355 55.583 25.7301C55.6628 25.6499 55.7422 25.5693 55.8216 25.4888C56.0724 25.2357 56.3232 24.9928 56.6023 24.7712C56.7062 24.6887 56.8023 24.601 56.899 24.51C57.0881 24.3356 57.2836 24.1734 57.4863 24.0153C57.5406 23.9725 57.5406 23.9725 57.596 23.9288C60.3326 21.7882 63.3088 20.5105 66.7551 20.1076C66.7805 20.1045 66.8058 20.1015 66.832 20.0984C67.0264 20.0756 67.2211 20.0561 67.4161 20.0382C67.4527 20.0349 67.4892 20.0315 67.5269 20.028C68.2443 19.964 68.9576 19.9485 69.6773 19.9497Z" fill="black"/>
<path d="M62.3228 34.4097C62.3998 34.4168 62.4767 34.4239 62.5537 34.431C62.6698 34.4417 62.7859 34.4524 62.902 34.4632C63.1279 34.4841 63.3539 34.5039 63.58 34.5223C64.5825 34.6048 65.579 34.7213 66.5411 35.0287C66.5703 35.0378 66.5996 35.0469 66.6297 35.0563C68.0176 35.4944 69.2348 36.6349 70.1599 37.7353C70.2194 37.806 70.2799 37.8755 70.3412 37.9447C71.7491 39.5436 71.7491 39.5436 71.7968 40.3727C71.7874 40.5209 71.7429 40.584 71.6392 40.6883C70.5312 41.4166 68.5107 40.9648 67.3164 40.7169C65.5655 40.3275 64.1939 39.4216 63.0331 38.0524C62.9522 37.9586 62.8682 37.8682 62.7841 37.7773C62.6035 37.5781 62.4378 37.3699 62.274 37.1567C62.2028 37.0642 62.1304 36.9729 62.0567 36.8825C60.7963 35.3348 60.7963 35.3348 60.7012 34.7132C60.7263 34.5743 60.7706 34.5137 60.8724 34.4168C61.2728 34.2107 61.8912 34.3692 62.3228 34.4097Z" fill="black"/>
</g>
<defs>
<clipPath id="clip0_74_909">
<rect width="123" height="60" fill="white"/>
</clipPath>
</defs>
</svg>
