<svg width="278" height="530" viewBox="0 0 278 530" fill="none" xmlns="http://www.w3.org/2000/svg">
<g clip-path="url(#clip0_74_113)">
<path fill-rule="evenodd" clip-rule="evenodd" d="M133.14 78.0095C134.837 85.0965 136.844 97.5752 138.695 102.043C140.548 106.511 141.164 113.443 144.252 104.816C147.337 96.1887 152.43 67.0713 157.215 50.2789C162 33.4864 166.474 10.8395 172.955 4.06072C179.439 -2.71776 189.933 7.91221 196.106 9.60696C202.28 11.3014 206.122 10.3676 209.996 14.2287C213.869 18.0898 217.97 24.7875 219.349 32.7737C220.727 40.7597 213.658 54.4519 218.273 62.1452C222.886 69.8386 244.248 72.5925 247.036 78.934C249.824 85.2755 236.851 93.8777 234.997 100.194C233.147 106.511 229.597 109.592 235.924 116.833C242.252 124.073 266.945 134.55 272.962 143.639C278.981 152.729 275.277 163.513 272.038 171.37C268.796 179.227 255.214 181.538 253.518 190.781C251.818 200.025 259.537 214.353 261.85 226.832C264.165 239.31 272.192 258.105 267.407 265.654C262.623 273.203 240.552 269.352 233.147 272.127C225.739 274.899 224.039 272.28 222.959 282.294C221.881 292.308 230.059 321.27 226.663 332.209C223.269 343.148 209.842 343.455 202.588 347.924C195.333 352.39 186.537 353.469 183.143 359.016C179.747 364.561 183.297 372.417 182.217 381.199C181.136 389.983 181.598 402.615 176.659 411.704C171.72 420.792 159.992 425.415 152.584 435.736C145.176 446.06 137.922 463.622 132.213 473.636C126.502 483.65 120.947 486.73 118.324 495.821C115.7 504.91 117.089 528.481 116.47 528.173C115.854 527.866 118.17 503.062 114.62 493.971C111.069 484.882 100.576 483.342 95.1726 473.636C89.7718 463.93 86.9944 446.829 82.2097 435.736C77.4249 424.644 72.1782 413.861 66.4668 407.081C60.758 400.304 50.9588 404.838 47.9491 395.066C44.9368 385.295 48.4007 348.455 48.4007 348.455C47.6281 336.899 44.9368 332.297 43.3184 325.739C41.7 319.18 42.6162 314.269 38.6877 309.099C34.7617 303.932 22.4514 301.162 19.7524 294.726C17.0533 288.29 20.264 280.105 22.4958 270.485C24.725 260.865 36.4167 247.745 33.1329 236.999C29.8465 226.253 6.33266 215.254 2.78261 206.01C-0.767435 196.767 6.31437 189.16 11.8352 181.538C17.3561 173.916 33.9577 166.65 35.9103 160.278C37.8628 153.905 26.6358 149.929 23.5478 143.304C20.4624 136.68 13.0151 126.791 17.39 120.53C21.7649 114.269 42.7154 109.444 49.7999 105.74C56.8843 102.037 60.7084 104.519 59.894 98.3108C59.0769 92.1022 43.676 76.7927 44.9029 68.4886C46.1297 60.185 62.4312 56.8976 67.2551 48.488C72.079 40.0781 70.1291 24.9725 73.8514 18.0302C77.5764 11.0878 83.5723 6.38891 89.5943 6.83397C95.6163 7.27876 102.427 11.918 109.989 20.6992C117.551 29.4807 124.497 50.2786 128.509 59.5223C132.521 68.7658 131.441 70.9228 133.14 78.0095Z" stroke="#2E6459" stroke-width="13.75" stroke-miterlimit="8"/>
<path fill-rule="evenodd" clip-rule="evenodd" d="M128.948 168.148C126.985 176.748 129.185 205.298 128.232 219.046C127.282 232.793 123.891 242.565 123.239 250.637C122.584 258.712 124.784 257.951 124.309 267.486C123.834 277.023 119.255 308.497 120.383 307.853C121.513 307.21 128.71 275.444 131.088 263.627C133.466 251.807 133.349 246.658 134.656 236.947C135.964 227.235 137.807 213.663 138.937 205.356C140.068 197.049 141.255 193.421 141.435 187.103C141.613 180.785 142.088 170.664 140.008 167.446C137.927 164.228 130.911 159.548 128.948 168.148Z" fill="#2E6459" stroke="#2E6459" stroke-width="4.58333" stroke-miterlimit="8"/>
<path fill-rule="evenodd" clip-rule="evenodd" d="M119.72 281.335C118.298 299.257 116.52 335.998 115.81 360.551C115.097 385.105 115.572 415.094 115.452 428.656C115.335 442.216 114.742 443.829 115.097 441.917C115.452 440.007 116.757 432.179 117.588 417.186C118.418 402.19 119.248 368.796 120.078 351.947C120.908 335.101 121.44 327.633 122.568 316.103C123.693 304.573 129.029 261.74 129.326 251.224C129.621 240.71 125.946 247.998 124.346 253.016C122.746 258.035 121.143 263.413 119.72 281.335Z" fill="#2E6459" stroke="#2E6459" stroke-width="4.58333" stroke-miterlimit="8"/>
<path fill-rule="evenodd" clip-rule="evenodd" d="M133.724 167.355C135.123 162.685 143.333 162.001 148.321 155.028C153.307 148.055 159.326 135.044 163.644 125.519C167.961 115.994 173.07 100.056 174.226 97.8771C175.383 95.698 172.644 106.157 170.577 112.445C168.51 118.733 164.558 128.569 161.819 135.604C159.084 142.639 157.139 149.051 154.158 154.654C151.177 160.257 146.314 164.491 143.941 169.222C141.571 173.954 141.448 183.354 139.929 183.043C138.407 182.732 132.328 172.024 133.724 167.355Z" fill="#2E6459" stroke="#2E6459" stroke-width="4.58333" stroke-miterlimit="8"/>
<path d="M167.975 116.605C170.467 112.127 172.96 107.648 176.035 105.893C179.113 104.137 182.517 106.875 186.427 106.071C190.34 105.268 193.504 104.048 199.505 101.072C205.506 98.0966 215.031 92.0561 222.436 88.2176C229.842 84.3789 236.887 81.2098 243.935 78.0408" stroke="#2E6459" stroke-width="4.58333" stroke-miterlimit="8"/>
<path fill-rule="evenodd" clip-rule="evenodd" d="M138.742 178.321C138.562 179.211 145.622 164.875 152.203 161.937C158.786 158.998 168.716 161.551 178.231 160.69C187.743 159.829 198.064 157.692 209.281 156.772C220.5 155.852 235.099 152.973 245.538 155.169C255.979 157.366 269.292 169.12 271.923 169.95C274.557 170.782 265.311 163.064 261.333 160.156C257.355 157.247 255.35 153.745 248.052 152.498C240.753 151.251 228.936 151.845 217.537 152.676C206.14 153.507 190.377 156.832 179.666 157.485C168.956 158.138 160.102 153.21 153.281 156.594C146.46 159.978 138.922 177.43 138.742 178.321Z" fill="#2E6459" stroke="#2E6459" stroke-width="4.58333" stroke-miterlimit="8"/>
<path fill-rule="evenodd" clip-rule="evenodd" d="M140.751 183.164C142.096 181.101 144.006 188.158 147.382 190.162C150.757 192.165 151.804 190.7 161.002 195.185C170.201 199.671 185.255 207.117 202.577 217.075C219.902 227.032 256.371 249.491 264.94 254.934C273.513 260.375 261.834 254.126 254.011 249.731C246.185 245.335 229.458 235.107 217.988 228.559C206.521 222.009 197.291 216.208 185.195 210.436C173.099 204.665 153.057 195.245 145.411 193.929C137.765 192.614 140.154 204.127 139.318 202.542C138.483 200.957 139.407 185.227 140.751 183.164Z" fill="#2E6459" stroke="#2E6459" stroke-width="4.58333" stroke-miterlimit="8"/>
<path fill-rule="evenodd" clip-rule="evenodd" d="M132.633 249.553C133.56 248.837 133.829 255.127 136.4 257.602C138.971 260.075 141.425 259.747 148.063 264.398C154.701 269.049 167.648 278.26 176.228 285.504C184.811 292.748 199.941 307.952 199.552 307.864C199.163 307.775 181.342 291.02 173.897 284.967C166.45 278.917 161.248 275.428 154.878 271.553C148.509 267.679 139.689 263.324 135.682 261.714C131.675 260.106 131.586 263.713 130.837 261.894C130.091 260.075 131.707 250.267 132.633 249.553Z" fill="#2E6459" stroke="#2E6459" stroke-width="4.58333" stroke-miterlimit="8"/>
<path d="M120.206 325.755C123.552 322.719 126.898 319.686 134.27 320.911C141.642 322.135 156.661 328.952 164.435 333.108C172.206 337.264 177.573 342.017 180.904 345.845C184.234 349.672 184.328 352.869 184.42 356.069" stroke="#2E6459" stroke-width="4.58333" stroke-miterlimit="8"/>
<path d="M118.64 350.597C125.34 355.337 132.038 360.08 139.277 367.107C146.515 374.137 156.416 384.664 162.068 392.771C167.722 400.874 170.46 408.309 173.196 415.74" stroke="#2E6459" stroke-width="4.58333" stroke-miterlimit="8"/>
<path d="M118.378 341.999C116.089 345.125 113.797 348.252 108.141 351.692C102.482 355.134 92.6327 357.349 84.4284 362.644C76.2268 367.941 64.8797 377.962 58.9203 383.468C52.9635 388.974 50.8231 392.325 48.6826 395.676" stroke="#2E6459" stroke-width="4.58333" stroke-miterlimit="8"/>
<path d="M118.117 324.882C114.857 321.447 111.599 318.01 105.199 315.96C98.801 313.906 88.1848 312.39 79.7221 312.567C71.2594 312.747 60.5518 314.949 54.4228 317.031C48.2937 319.113 45.6155 322.086 42.9399 325.061" stroke="#2E6459" stroke-width="4.58333" stroke-miterlimit="8"/>
<path fill-rule="evenodd" clip-rule="evenodd" d="M128.188 241.408C127.05 239.646 125.223 247.701 119.561 249.996C113.899 252.295 107.428 249.879 94.217 255.187C81.0036 260.497 52.7546 275.65 40.2929 281.854C27.8286 288.058 17.4055 293.188 19.4416 292.412C21.4776 291.638 42.389 282.062 52.5145 277.2C62.6399 272.338 72.4965 266.821 80.197 263.241C87.8948 259.661 93.4966 257.277 98.7094 255.724C103.922 254.173 107.726 254.145 111.471 253.934C115.217 253.725 118.691 253.368 121.179 254.47C123.664 255.575 125.191 262.496 126.389 260.557C127.59 258.619 129.326 243.167 128.188 241.408Z" fill="#2E6459" stroke="#2E6459" stroke-width="4.58333" stroke-miterlimit="8"/>
<path fill-rule="evenodd" clip-rule="evenodd" d="M130.874 176.817C129.347 174.962 132.464 182.861 124.045 184.357C115.624 185.853 96.6603 183.34 80.3641 185.793C64.0652 188.247 39.0191 196.506 26.2545 199.079C13.4927 201.652 3.93625 201.054 3.78485 201.233C3.63606 201.413 17.8676 201.203 25.3566 200.156C32.8456 199.109 42.2533 196.505 48.7243 194.95C55.1979 193.394 57.863 192.077 64.1853 190.82C70.5049 189.564 78.5655 188.038 86.6549 187.409C94.7444 186.781 106.219 186.99 112.719 187.05C119.221 187.11 122.247 186.362 125.661 187.768C129.078 189.175 132.163 197.134 133.213 195.488C134.26 193.842 132.404 178.672 130.874 176.817Z" fill="#2E6459" stroke="#2E6459" stroke-width="4.58333" stroke-miterlimit="8"/>
<path fill-rule="evenodd" clip-rule="evenodd" d="M133.594 164.521C131.882 158.997 123.317 142.224 119.493 138.528C115.669 134.832 116.267 142.383 110.649 142.344C105.035 142.304 97.9841 141.747 85.7938 138.29C73.6062 134.832 42.8539 123.186 37.5184 121.596C32.1803 120.007 43.5326 125.054 53.7703 128.751C64.0054 132.447 88.5817 140.992 98.9395 143.774C109.295 146.556 111.926 143.019 115.907 145.444C119.89 147.868 120.529 153.949 122.84 158.321C125.15 162.693 127.857 170.801 129.77 171.676C131.681 172.55 135.307 170.046 133.594 164.521Z" fill="#2E6459" stroke="#2E6459" stroke-width="4.58333" stroke-miterlimit="8"/>
<path fill-rule="evenodd" clip-rule="evenodd" d="M119.796 141.455C118.921 135.922 113.084 120.557 110.263 108.735C107.444 96.9126 104.267 81.2291 102.878 70.5215C101.487 59.8139 103.037 51.6538 101.925 44.4887C100.813 37.3238 96.4828 28.2481 96.2061 27.5316C95.9268 26.8152 99.4612 35.5326 100.257 40.1898C101.051 44.847 100.495 48.7878 100.973 55.4751C101.448 62.1624 102.004 71.3574 103.116 80.3137C104.228 89.2698 105.577 98.9427 107.642 109.213C109.707 119.482 113.481 136.559 115.504 141.932C117.53 147.306 120.667 146.988 119.796 141.455Z" fill="#2E6459" stroke="#2E6459" stroke-width="4.58333" stroke-miterlimit="8"/>
<path d="M105.327 90.8087C104.095 87.9057 102.865 85.0026 98.9235 83.3803C94.9846 81.7578 89.3202 84.8744 81.685 81.0748C74.0524 77.2752 63.5849 68.9288 53.1201 60.5825" stroke="#2E6459" stroke-width="4.58333" stroke-miterlimit="8"/>
<path d="M171.629 108.267C172.712 104.674 173.798 101.081 175.589 93.6558C177.379 86.2306 180.35 73.0168 182.376 63.7149C184.404 54.4134 188.361 44.7126 187.75 37.846C187.137 30.9797 181.386 27.5863 178.7 22.5164C176.012 17.4465 173.822 12.4363 171.629 7.42627" stroke="#2E6459" stroke-width="4.58333" stroke-miterlimit="8"/>
<path d="M188.335 39.2158C192.455 36.1376 196.574 33.0598 200.99 30.3988C205.407 27.7379 214.841 23.2498 214.841 23.2498C217.307 21.9392 216.55 22.237 215.793 22.5351" stroke="#2E6459" stroke-width="3.4375" stroke-miterlimit="8"/>
</g>
<defs>
<clipPath id="clip0_74_113">
<rect width="278" height="530" fill="white"/>
</clipPath>
</defs>
</svg>
