<svg width="476" height="531" viewBox="0 0 476 531" fill="none" xmlns="http://www.w3.org/2000/svg">
<g filter="url(#filter0_n_74_429)">
<g clip-path="url(#clip0_74_429)">
<path fill-rule="evenodd" clip-rule="evenodd" d="M231.488 92.094C234.792 86.1622 244.163 70.4359 248.02 61.4689C251.877 52.5023 249.95 44.3633 254.634 38.2934C259.318 32.2235 267.035 26.1537 276.126 25.05C285.22 23.9464 299.825 32.0854 309.193 31.6716C318.563 31.2577 324.762 24.9122 332.341 22.5671C339.917 20.2216 342.259 11.1171 354.66 17.6008C367.062 24.0845 404.4 54.8474 406.742 61.4689C409.084 68.0908 380.978 56.7787 368.715 57.3304C356.452 57.8823 341.571 62.7104 333.168 64.7798C324.762 66.849 317.598 68.5046 318.287 69.7461C318.975 70.9876 329.723 72.9189 337.302 72.229C344.878 71.5395 353.284 66.4351 363.755 65.6075C374.226 64.7798 387.865 63.6762 400.128 67.2628C412.391 70.8497 430.026 75.9538 437.328 87.1277C444.631 98.302 449.038 129.341 443.942 134.307C438.844 139.273 406.742 116.925 406.742 116.925C396.545 112.097 396.271 106.717 382.767 105.337C369.265 103.958 337.164 106.717 325.727 108.648C314.291 110.58 311.123 114.58 314.153 116.925C317.187 119.27 343.913 122.719 343.913 122.719C355.625 124.788 373.949 125.478 384.42 129.341C394.891 133.203 398.475 141.618 406.742 145.895C415.006 150.171 434.021 155 434.021 155C442.562 157.896 452.622 156.793 457.994 163.277C463.369 169.76 465.985 180.659 466.261 193.902C466.538 207.144 462.266 234.737 459.647 242.736C457.029 250.739 455.378 248.439 450.556 241.909C445.731 235.378 436.64 213.765 430.715 203.559C424.789 193.351 421.62 186.681 415.006 180.659C408.396 174.635 399.163 170.312 391.034 167.415C382.905 164.518 375.741 164.794 366.235 163.277L333.995 158.31C327.104 157.483 321.317 154.861 324.901 158.31C328.484 161.759 341.986 171.967 355.487 179.004C368.989 186.037 393.009 194.224 405.915 200.523C418.818 206.822 425.481 208.249 432.918 216.802C440.359 225.355 443.894 242.553 450.556 251.84C457.215 261.128 469.845 262.464 472.875 272.535C475.906 282.605 472.187 300.813 468.742 312.262C465.296 323.714 459.602 344.267 452.207 341.233C444.814 338.199 433.607 309.918 424.377 294.054C415.145 278.19 408.441 258.326 396.821 246.047C385.202 233.77 368.853 228.251 354.66 220.389C340.471 212.525 316.495 198.867 311.673 198.867C306.851 198.867 315.395 211.836 325.727 220.389C336.06 228.94 357.279 236.804 373.675 250.185C390.069 263.566 411.426 282.467 424.101 300.675C436.778 318.886 450.003 343.027 449.73 359.441C449.453 375.859 430.164 390.48 422.447 399.172C414.733 407.864 409.222 416.83 403.435 411.587C397.648 406.347 394.891 383.859 387.727 367.721C380.563 351.58 371.285 331.256 360.448 314.745C349.61 298.237 335.51 279.294 322.697 268.67C309.884 258.049 291.603 252.99 283.567 251.013C275.531 249.035 268.55 248.391 274.473 256.806C280.398 265.221 303.087 283.063 319.114 301.503C335.143 319.943 360.036 347.165 370.642 367.444C381.251 387.723 381.711 409.059 382.767 423.177C383.825 437.292 385.385 441.798 376.982 452.145C368.577 462.492 338.54 483.46 332.341 485.254C326.139 487.048 341.709 472.975 339.782 462.904C337.852 452.834 326.416 441.936 320.767 424.832C315.118 407.725 311.123 375.859 305.886 360.269C300.652 344.682 295.553 338.612 289.354 331.301C283.155 323.988 270.754 314.056 268.688 316.4C266.62 318.748 270.339 330.612 276.953 345.371C283.567 360.134 301.478 382.204 308.366 404.966C315.256 427.728 316.91 465.664 318.287 481.943C319.664 498.22 327.104 496.703 316.633 502.635C306.162 508.567 274.016 513.855 255.461 517.533C236.905 521.213 215.873 536.25 205.309 524.708C194.745 513.166 188.041 513.993 178.856 507.878C169.669 501.762 153.137 507.784 152.401 492.426C151.667 477.068 164.435 436.787 174.446 415.725C184.457 394.666 207.374 377.099 212.473 366.063C217.572 355.029 211.234 346.888 205.032 349.51C198.833 352.131 185.882 363.995 175.273 381.791C164.663 399.587 147.627 438.303 141.379 456.283C135.132 474.263 145.925 492.288 137.796 489.669C129.67 487.048 116.259 477.435 109.14 470.356C102.021 463.275 94.6731 460.837 95.0849 447.179C95.4998 433.521 101.01 408.553 111.62 388.412C122.229 368.272 142.344 344.959 158.741 326.335C175.134 307.712 201.452 287.893 209.993 276.673C218.537 265.453 212.335 261.637 209.993 259.015C207.651 256.394 204.482 255.106 195.941 260.945C187.397 266.786 170.312 280.258 158.741 294.054C147.167 307.85 135.685 330.335 126.498 343.716C117.314 357.097 110.105 361.097 103.629 374.342C97.1533 387.585 91.1376 413.519 87.6473 423.177C84.1569 432.832 89.2978 438.03 82.6868 432.281C76.0729 426.533 53.3842 402.437 47.9668 388.689C42.5463 374.938 44.9334 363.766 50.1704 349.786C55.4044 335.807 60.8699 323.621 79.3799 304.813C97.8868 286.006 161.218 236.943 161.218 236.943C179.268 221.906 187.947 218.18 187.674 214.593C187.397 211.008 170.727 211.147 159.568 215.421C148.405 219.697 134.492 227.285 120.714 240.253C106.936 253.222 88.7476 282.051 76.8997 293.226C65.0487 304.401 56.646 296.814 49.6202 307.296C42.5914 317.782 39.9278 355.487 34.7389 356.131C29.55 356.775 21.511 324.542 18.4807 311.161C15.4503 297.78 9.29635 290.421 16.5506 275.845C23.8079 261.267 40.1112 239.838 62.0183 223.7C83.9255 207.559 131.873 189.763 147.993 179.004C164.113 168.243 166.455 158.586 158.741 159.138C151.024 159.69 124.571 166.725 101.699 182.314C78.8267 197.901 36.2541 237.632 21.5111 252.668C6.77103 267.704 16.1388 276.811 13.2467 272.535C10.3516 268.258 5.806 239.149 4.15252 227.011C2.49904 214.87 0.707269 207.698 3.32578 199.695C5.94429 191.695 17.6539 183.831 19.8576 179.004C22.0642 174.175 10.9017 175.416 16.5506 170.726C22.1995 166.036 39.5611 156.379 53.7509 150.861C67.9438 145.343 84.3403 142.032 101.699 137.618C119.06 133.203 147.028 128.375 157.914 124.375C168.797 120.374 171.416 114.442 167.005 113.614C162.598 112.787 151.024 115.27 131.459 119.408C111.896 123.547 67.7604 132.514 49.6202 138.446C31.477 144.377 26.8864 159.138 22.6144 155C18.3424 150.861 22.5212 123.823 23.9913 113.614C25.4614 103.406 25.7831 98.9915 31.4319 93.7496C37.0808 88.5074 51.6856 85.7942 57.8846 82.1615C64.0867 78.5289 64.4986 74.4363 68.6323 71.9534C72.766 69.4701 72.4894 67.2171 82.6868 67.2628C92.8813 67.3089 117.957 69.6082 129.805 72.229C141.656 74.8502 147.167 83.2651 153.781 82.9895C160.394 82.7135 171.001 74.5745 169.486 70.5737C167.97 66.5733 153.227 61.7449 144.686 58.986C136.145 56.227 127.74 53.8816 118.234 54.0197C108.725 54.1576 94.2582 58.434 87.6473 59.8136C81.0334 61.1932 75.5228 65.7453 78.5531 62.2966C81.5835 58.8478 98.8068 45.7426 105.833 39.1211C112.858 32.4995 114.788 27.1192 120.714 22.5671C126.636 18.0146 134.627 13.0484 141.379 11.8066C148.132 10.5652 155.846 15.5314 161.218 15.1176C166.593 14.7037 171.001 11.301 173.619 9.32367C176.238 7.34633 172.381 -1.16076 176.926 3.2538C181.472 7.66836 193.596 28.3149 200.899 35.8101C208.201 43.3054 216.883 41.4662 220.74 48.2258C224.598 54.9852 222.806 68.2286 224.047 76.3676C225.286 84.5069 227.078 95.1289 228.181 97.0602C229.281 98.9915 228.181 98.026 231.488 92.094Z" stroke="#2E6459" stroke-width="10.3125" stroke-miterlimit="8"/>
<path d="M230.225 95.4497C234.987 134.067 239.746 172.683 238.965 228.513C238.18 284.342 225.521 430.424 225.521 430.424" stroke="#2E6459" stroke-width="4.58333" stroke-miterlimit="8"/>
<path fill-rule="evenodd" clip-rule="evenodd" d="M224.029 78.7227C224.312 86.1978 230.472 117.637 232.432 142.481C234.392 167.325 234.672 207.267 235.793 227.787C236.915 248.307 238.243 272.125 239.154 265.6C240.065 259.079 242.094 215.255 241.256 188.653C240.414 162.049 235.234 122.254 234.113 105.985C232.991 89.7154 233.412 95.3585 234.533 91.0346C235.652 86.7109 241.466 78.9424 240.835 80.0418C240.203 81.1409 233.553 97.5571 230.752 97.6305C227.953 97.7037 223.75 71.2476 224.029 78.7227Z" fill="#2E6459" stroke="#2E6459" stroke-width="4.58333" stroke-miterlimit="8"/>
<path d="M239.166 239.01C239.53 249.111 239.894 259.211 239.437 266.958C238.983 274.708 236.984 280.426 236.437 285.497C235.892 290.572 236.028 293.985 236.166 297.398" stroke="#2E6459" stroke-width="4.58333" stroke-miterlimit="8"/>
<path d="M226.122 83.7121L187.34 17.1987" stroke="#2E6459" stroke-width="4.58333" stroke-miterlimit="8"/>
<path d="M228.827 92.741C206.983 76.5749 185.142 60.4086 170.886 51.2893C156.63 42.1697 154.331 40.0513 143.294 38.0246C132.258 35.9982 118.462 37.5641 104.666 39.13" stroke="#2E6459" stroke-width="4.58333" stroke-miterlimit="8"/>
<path d="M230.331 101.552C224.733 102.012 215.711 105.144 203.466 103.762C191.221 102.381 174.957 95.5651 156.865 93.2624C138.773 90.9597 115.654 87.5519 94.9105 89.9467C74.1698 92.3412 44.1065 103.855 32.4089 107.631C20.7143 111.407 22.7225 112.006 24.7337 112.605" stroke="#2E6459" stroke-width="4.58333" stroke-miterlimit="8"/>
<path fill-rule="evenodd" clip-rule="evenodd" d="M196.209 118.153C193.951 117.753 190.094 118.32 189.541 119.153C188.985 119.987 190.963 122.421 192.875 123.154C194.784 123.888 199.299 123.821 201.004 123.555C202.706 123.288 203.713 122.354 203.087 121.554C202.462 120.754 198.467 118.553 196.209 118.153Z" stroke="#2E6459" stroke-width="4.58333" stroke-miterlimit="8"/>
<path d="M235.441 124.342C232.706 127.097 229.973 129.851 218.068 132.33C206.163 134.809 180.329 136.737 164.014 139.215C147.696 141.694 136.62 142.107 120.164 147.203C103.71 152.298 84.4967 161.043 65.2832 169.788" stroke="#2E6459" stroke-width="4.58333" stroke-miterlimit="8"/>
<path fill-rule="evenodd" clip-rule="evenodd" d="M187.734 155.736C190.524 153.589 198.945 149.388 202.561 149.981C206.178 150.575 210.477 156.878 209.425 159.298C208.372 161.719 200.18 163.911 196.245 164.505C192.31 165.099 187.505 164.003 185.813 162.861C184.117 161.719 184.941 157.883 187.734 155.736Z" stroke="#2E6459" stroke-width="4.58333" stroke-miterlimit="8"/>
<path d="M237.847 158.352C236.927 161.153 236.01 163.954 224.059 168.822C212.109 173.69 180.81 181.773 166.149 187.56C151.487 193.345 149.557 195.229 136.091 203.542C122.626 211.851 100.611 224.85 85.3505 237.433C70.0933 250.014 57.3165 264.526 44.5396 279.039" stroke="#2E6459" stroke-width="4.58333" stroke-miterlimit="8"/>
<path d="M236.343 207.108C236.115 209.91 235.883 212.715 226.991 218.412C218.095 224.112 196.269 232.016 182.972 241.301C169.675 250.582 159.177 261.703 147.209 274.112C135.24 286.521 120.615 303.342 111.169 315.747C101.723 328.156 96.1312 338.359 90.5364 348.562" stroke="#2E6459" stroke-width="4.58333" stroke-miterlimit="8"/>
<path d="M238.147 272.116C232.682 279.015 227.219 285.91 216.931 297.497C206.647 309.084 189.932 319.386 176.433 341.639C162.932 363.893 149.433 397.46 135.932 431.026" stroke="#2E6459" stroke-width="3.4375" stroke-miterlimit="8"/>
<path d="M238.748 254.059L237.846 275.126" stroke="#2E6459" stroke-width="4.58333" stroke-miterlimit="8"/>
<path d="M235.441 313.048C252.439 336.12 269.44 359.192 279.86 385.123C290.283 411.057 294.128 439.85 297.973 468.647" stroke="#2E6459" stroke-width="1.14583" stroke-miterlimit="8"/>
<path d="M239.801 252.403C248.603 256.68 257.406 260.96 272.894 280.281C288.383 299.6 320.463 345.787 332.735 368.329C345.007 390.868 345.768 403.199 346.525 415.526" stroke="#2E6459" stroke-width="2.29167" stroke-miterlimit="8"/>
<path fill-rule="evenodd" clip-rule="evenodd" d="M266.824 220.709C270.062 222.307 278.868 229.018 280.236 231.393C281.607 233.767 278.002 235.639 275.035 234.956C272.07 234.27 264.816 229.476 262.444 227.285C260.072 225.091 260.117 222.809 260.803 221.804C261.485 220.799 263.584 219.11 266.824 220.709Z" stroke="#2E6459" stroke-width="4.58333" stroke-miterlimit="8"/>
<path fill-rule="evenodd" clip-rule="evenodd" d="M265.556 179.485C265.231 177.568 266.434 173.868 269.99 174.005C273.55 174.143 282.791 178.297 286.904 180.307C291.016 182.317 294.621 184.554 294.666 186.061C294.711 187.566 290.968 189.438 287.18 189.348C283.392 189.258 275.675 187.112 271.932 185.514C268.189 183.916 265.877 181.403 265.556 179.485Z" stroke="#2E6459" stroke-width="4.58333" stroke-miterlimit="8"/>
<path fill-rule="evenodd" clip-rule="evenodd" d="M266.169 145.06C265.661 143.137 268.243 138.376 272.251 138.193C276.261 138.01 286.72 141.81 290.223 143.961C293.722 146.113 295.751 150.141 293.262 151.102C290.776 152.064 279.484 150.69 275.293 149.729C271.099 148.768 266.677 146.983 266.169 145.06Z" stroke="#2E6459" stroke-width="4.58333" stroke-miterlimit="8"/>
<path d="M239.951 189.05C254.045 197.221 268.135 205.392 285.47 216.871C302.804 228.347 323.632 238.724 343.955 257.914C364.275 277.104 385.839 304.555 407.403 332.009" stroke="#2E6459" stroke-width="4.58333" stroke-miterlimit="8"/>
<path d="M237.131 139.993C235.478 142.132 233.824 144.271 241.538 147.997C249.253 151.724 264.311 154.254 283.413 162.35C302.513 170.447 333.322 183.651 356.143 196.577C378.961 209.504 399.647 224.708 420.331 239.913" stroke="#2E6459" stroke-width="4.58333" stroke-miterlimit="8"/>
<path d="M234.037 110.498C230.436 113.026 226.834 115.553 246.98 120.7C267.125 125.847 329.624 135.406 354.907 141.38C380.193 147.355 389.438 151.95 398.685 156.546" stroke="#2E6459" stroke-width="4.58333" stroke-miterlimit="8"/>
<path fill-rule="evenodd" clip-rule="evenodd" d="M271.638 112.976C272.416 111.67 276.962 109.944 280.175 109.897C283.389 109.851 288.759 111.39 290.917 112.696C293.076 114.002 294.726 116.708 293.121 117.734C291.512 118.76 284.03 119.087 281.276 118.853C278.522 118.62 276.868 118.387 275.492 117.734C274.115 117.081 270.856 114.282 271.638 112.976Z" stroke="#2E6459" stroke-width="4.58333" stroke-miterlimit="8"/>
<path d="M231.533 98.1437C236.509 99.9296 241.487 101.716 251.074 101.441C260.662 101.166 277.404 98.4642 289.056 96.4953C300.706 94.5261 307.771 92.0073 320.984 89.6261C334.193 87.2445 351.257 84.7261 368.321 82.2073" stroke="#2E6459" stroke-width="4.58333" stroke-miterlimit="8"/>
<path d="M231.533 93.5113C232.703 94.5232 233.875 95.5353 241.177 92.6833C248.477 89.8314 265.054 82.288 275.341 76.4005C285.626 70.5127 290.403 63.0614 302.894 57.3578C315.383 51.6543 332.834 46.9165 350.283 42.179" stroke="#2E6459" stroke-width="4.58333" stroke-miterlimit="8"/>
<path d="M234.239 93.042C239.888 89.1436 245.537 85.2455 251.05 78.9252C256.561 72.6049 261.933 63.8625 267.308 55.1204" stroke="#2E6459" stroke-width="4.58333" stroke-miterlimit="8"/>
</g>
</g>
<defs>
<filter id="filter0_n_74_429" x="0" y="0" width="475.994" height="530.991" filterUnits="userSpaceOnUse" color-interpolation-filters="sRGB">
<feFlood flood-opacity="0" result="BackgroundImageFix"/>
<feBlend mode="normal" in="SourceGraphic" in2="BackgroundImageFix" result="shape"/>
<feTurbulence type="fractalNoise" baseFrequency="2 2" stitchTiles="stitch" numOctaves="3" result="noise" seed="1932" />
<feColorMatrix in="noise" type="luminanceToAlpha" result="alphaNoise" />
<feComponentTransfer in="alphaNoise" result="coloredNoise1">
<feFuncA type="discrete" tableValues="1 1 1 1 1 1 1 1 1 1 1 1 1 1 1 1 1 1 1 1 1 1 1 1 1 1 1 1 1 1 1 1 1 1 1 1 1 1 1 1 1 1 1 1 1 1 1 1 1 1 1 0 0 0 0 0 0 0 0 0 0 0 0 0 0 0 0 0 0 0 0 0 0 0 0 0 0 0 0 0 0 0 0 0 0 0 0 0 0 0 0 0 0 0 0 0 0 0 0 0 "/>
</feComponentTransfer>
<feComposite operator="in" in2="shape" in="coloredNoise1" result="noise1Clipped" />
<feFlood flood-color="rgba(0, 0, 0, 0.25)" result="color1Flood" />
<feComposite operator="in" in2="noise1Clipped" in="color1Flood" result="color1" />
<feMerge result="effect1_noise_74_429">
<feMergeNode in="shape" />
<feMergeNode in="color1" />
</feMerge>
</filter>
<clipPath id="clip0_74_429">
<rect width="475.994" height="530.991" fill="white"/>
</clipPath>
</defs>
</svg>
